#!OML:ASF E:\Style3\Style3.ASF
:FULLY-SPECIFIED
:DEGREES
4343
root 0.535487 17.7993 1.74642 195.741 77.7005 541.279
lowerback -9.99234 -1.0409 2.22004
upperback -10.8355 -0.655369 2.95265
thorax -5.79192 -0.0395429 1.79186
lowerneck -10.3203 2.6686 -0.140427
upperneck 26.2987 6.8257 -7.57873
head 10.3857 2.65216 -1.77825
rclavicle 8.94531e-015 -1.74931e-014
rhumerus 12.4256 19.9627 -52.412
rradius 134.55
rwrist 10.2204
rhand -22.3524 31.2265
rfingers 7.12502
rthumb 4.06849 1.28562
lclavicle 8.94531e-015 -1.74931e-014
lhumerus -10.7301 -34.0003 67.9343
lradius 115.5
lwrist 18.3359
lhand 18.0143 21.7866
lfingers 7.12502
lthumb 42.6809 46.1443
rfemur -12.8805 9.25013 20.1434
rtibia 15.1844
rfoot -16.0894 -20.6057
rtoes -14.2641
lfemur -8.64236 -12.2007 -9.40615
ltibia 7.95139e-015
lfoot -5.0506 11.5983
ltoes -24.6025
4344
root 0.542133 17.7969 1.74268 195.782 77.5729 541.358
lowerback -9.98972 -1.07009 2.17325
upperback -10.9121 -0.677638 2.98756
thorax -5.87608 -0.0419821 1.85463
lowerneck -10.1815 2.69106 -0.158384
upperneck 26.2804 6.99919 -8.00108
head 10.3796 2.69725 -1.90488
rclavicle 1.19271e-014 1.90833e-014
rhumerus 13.3783 18.8031 -52.0595
rradius 135.052
rwrist 10.7389
rhand -25.4939 32.6135
rfingers 7.12502
rthumb 1.0346 2.63624
lclavicle 1.19271e-014 1.90833e-014
lhumerus -10.9151 -33.3391 67.9616
lradius 115.589
lwrist 18.4343
lhand 17.0189 21.5684
lfingers 7.12502
lthumb 41.7485 46.2421
rfemur -12.7979 9.255 20.1927
rtibia 15.1861
rfoot -16.0972 -20.7632
rtoes -14.308
lfemur -8.60069 -12.3383 -9.36857
ltibia -9.54166e-015
lfoot -5.07186 11.6003
ltoes -24.6899
4345
root 0.54947 17.7961 1.73888 196.01 77.4296 541.59
lowerback -10.0339 -1.09354 2.14428
upperback -10.989 -0.693762 3.01877
thorax -5.93528 -0.041958 1.90334
lowerneck -10.0501 2.71226 -0.13705
upperneck 26.2605 7.13806 -8.34949
head 10.3708 2.7373 -2.01637
rclavicle -5.76476e-015 -7.15625e-015
rhumerus 14.335 17.742 -51.6593
rradius 135.485
rwrist 11.288
rhand -28.4044 34.0257
rfingers 7.12502
rthumb -1.77648 4.05337
lclavicle -5.76476e-015 -7.15625e-015
lhumerus -11.0239 -32.8163 67.8868
lradius 115.769
lwrist 18.6605
lhand 15.8195 21.6477
lfingers 7.12502
lthumb 40.6224 46.6829
rfemur -12.7608 9.31998 20.2664
rtibia 15.191
rfoot -16.1386 -20.9399
rtoes -14.4084
lfemur -8.59573 -12.4724 -9.27499
ltibia 6.36111e-015
lfoot -5.24359 11.5113
ltoes -24.3401
4346
root 0.557179 17.7954 1.73142 195.89 77.3279 541.457
lowerback -10.184 -1.11109 2.07743
upperback -11.0061 -0.714004 3.00204
thorax -5.86948 -0.0457509 1.9206
lowerneck -9.86822 2.74252 -0.0151923
upperneck 26.1054 7.26211 -8.76275
head 10.3078 2.77696 -2.1699
rclavicle -2.38542e-014 2.38542e-014
rhumerus 15.3878 16.7982 -51.3593
rradius 135.914
rwrist 12.0979
rhand -31.0636 35.3535
rfingers 7.12502
rthumb -4.34452 5.41804
lclavicle -2.38542e-014 2.38542e-014
lhumerus -10.9676 -32.2904 67.6503
lradius 115.913
lwrist 18.9942
lhand 14.8223 21.7284
lfingers 7.12502
lthumb 39.6843 47.0489
rfemur -12.7267 9.2731 20.2465
rtibia 15.1969
rfoot -16.0652 -21.0521
rtoes -14.879
lfemur -8.57713 -12.5919 -9.29257
ltibia -1.27222e-014
lfoot -5.4846 11.4474
ltoes -23.5588
4347
root 0.566142 17.7928 1.72265 195.612 77.2457 541.202
lowerback -10.3331 -1.12942 2.01834
upperback -11.0084 -0.739465 2.95834
thorax -5.78823 -0.0550032 1.90467
lowerneck -9.74241 2.77864 0.078518
upperneck 25.9837 7.39331 -9.13398
head 10.2666 2.81917 -2.30213
rclavicle 2.62396e-014 1.74931e-014
rhumerus 16.4504 15.9563 -51.119
rradius 136.325
rwrist 13.0954
rhand -33.5218 36.9972
rfingers 7.12502
rthumb -6.71793 7.12374
lclavicle 2.62396e-014 1.74931e-014
lhumerus -11.0049 -31.7373 67.432
lradius 115.85
lwrist 19.25
lhand 13.9817 21.445
lfingers 7.12502
lthumb 38.8922 46.9958
rfemur -12.6545 9.091 20.2098
rtibia 15.2359
rfoot -16.1072 -21.0315
rtoes -15.044
lfemur -8.51101 -12.7102 -9.36325
ltibia -1.11319e-014
lfoot -5.59052 11.4246
ltoes -23.2738
